<?xml version="1.0" encoding="utf-8"?>
<!-- Generator: Adobe Illustrator 23.0.1, SVG Export Plug-In . SVG Version: 6.00 Build 0)  -->
<svg version="1.1" id="Layer_1" xmlns="http://www.w3.org/2000/svg" xmlns:xlink="http://www.w3.org/1999/xlink" x="0px" y="0px"
	 viewBox="0 0 1550 196.94" style="enable-background:new 0 0 1550 196.94;" xml:space="preserve">
<style type="text/css">
	.st0{opacity:0.3;fill:url(#SVGID_1_);}
</style>
<linearGradient id="SVGID_1_" gradientUnits="userSpaceOnUse" x1="1549.8242" y1="98.4675" x2="0.1758" y2="98.4675">
	<stop  offset="0" style="stop-color:#FAB998"/>
	<stop  offset="0.4905" style="stop-color:#FFFFFF"/>
	<stop  offset="1" style="stop-color:#FBC1A2"/>
</linearGradient>
<path class="st0" d="M1548.82,141.51h-148.92l-16.49-39.06c-0.16-0.37-0.52-0.61-0.92-0.61s-0.76,0.24-0.92,0.61l-16.49,39.06
	h-22.99c-0.47,0-0.88,0.33-0.98,0.79l-4.3,19.8l-4.05-19.79c-0.09-0.47-0.5-0.8-0.98-0.8h-7.82L1299.76,8.34
	c-0.09-0.48-0.5-0.82-0.98-0.82c0,0,0,0-0.01,0c-0.49,0-0.9,0.35-0.98,0.83l-22.63,133.92l-8.28,31.99l-8.53-32
	c-0.12-0.44-0.51-0.74-0.97-0.74h-78.29l-9.81-38.59c-0.11-0.44-0.5-0.74-0.95-0.75c-0.46,0.01-0.85,0.28-0.98,0.71l-11.37,37.28
	l-6.37-9.94c-0.18-0.28-0.48-0.45-0.8-0.46c-0.34-0.01-0.64,0.13-0.84,0.39l-8.63,11.37h-819.7l-8.63-11.37
	c-0.19-0.25-0.47-0.39-0.78-0.4c-0.29-0.02-0.6,0.13-0.79,0.37l-8.28,10.22l-9.51-37.42c-0.11-0.44-0.51-0.75-0.97-0.75
	c-0.46,0-0.86,0.31-0.97,0.75l-9.81,38.59h-57.04c-0.35,0-0.68,0.19-0.86,0.49l-16.96,28.52l-21.38-155.4
	c-0.07-0.5-0.51-0.83-1-0.86c-0.5,0-0.92,0.38-0.98,0.88l-19.83,168.2l-11.7-41.1c-0.12-0.43-0.51-0.73-0.96-0.73H94.45L74.73,105.2
	c-0.35-0.64-1.41-0.64-1.76,0l-19.72,36.31H0.18v2h53.67c0.37,0,0.7-0.2,0.88-0.52l19.12-35.22l19.12,35.22
	c0.17,0.32,0.51,0.52,0.88,0.52h54.59l12.86,45.18c0.12,0.43,0.52,0.73,0.96,0.73c0.03,0,0.05,0,0.08,0
	c0.47-0.04,0.86-0.41,0.91-0.88l19.5-165.39l20.7,150.48c0.06,0.42,0.38,0.76,0.79,0.84c0.42,0.08,0.84-0.1,1.06-0.47l18.13-30.49
	h57.25c0.46,0,0.86-0.31,0.97-0.75l9.03-35.54l9.03,35.54c0.09,0.37,0.38,0.65,0.75,0.73c0.37,0.08,0.75-0.05,0.99-0.35l8.73-10.78
	l8.16,10.75c0.19,0.25,0.48,0.4,0.8,0.4h820.7c0.31,0,0.61-0.15,0.8-0.4l8.06-10.63l6.76,10.56c0.21,0.33,0.59,0.51,0.98,0.45
	c0.39-0.05,0.71-0.33,0.82-0.7l10.96-35.92l9.12,35.88c0.11,0.44,0.51,0.75,0.97,0.75h78.3l9.31,34.93
	c0.12,0.44,0.51,0.74,0.97,0.74c0,0,0,0,0,0c0.45,0,0.85-0.31,0.96-0.75l9.25-35.76l21.7-128.38l23.35,128.39
	c0.09,0.48,0.5,0.82,0.98,0.82h7.83l4.84,23.64c0.09,0.46,0.5,0.8,0.97,0.8c0,0,0,0,0.01,0c0.47,0,0.88-0.33,0.98-0.79l5.13-23.65
	h22.84c0.4,0,0.76-0.24,0.92-0.61l15.82-37.49l15.82,37.49c0.16,0.37,0.52,0.61,0.92,0.61h149.58c0.55,0,1-0.45,1-1
	C1549.82,141.96,1549.38,141.51,1548.82,141.51z"/>
</svg>
