<?xml version="1.0" encoding="utf-8"?>
<!-- Generator: Adobe Illustrator 23.0.1, SVG Export Plug-In . SVG Version: 6.00 Build 0)  -->
<svg version="1.1" id="Layer_1" xmlns="http://www.w3.org/2000/svg" xmlns:xlink="http://www.w3.org/1999/xlink" x="0px" y="0px"
	 viewBox="0 0 612 176" style="enable-background:new 0 0 612 176;" xml:space="preserve">
<style type="text/css">
	.st0{fill:#EB1C23;}
</style>
<g>
	<path class="st0" d="M191.88,77.21c1.29-1.29,2.78-2.29,4.49-3.02c1.71-0.73,3.55-1.1,5.52-1.1c2.97,0,5.63,0.82,7.97,2.46
		s4.04,3.74,5.1,6.31h12.84c-0.6-3.02-1.69-5.82-3.25-8.39s-3.49-4.8-5.78-6.68c-2.29-1.89-4.87-3.37-7.74-4.46
		c-2.87-1.08-5.92-1.63-9.14-1.63c-3.63,0-7.05,0.69-10.28,2.08c-3.22,1.39-6.03,3.28-8.42,5.67s-4.28,5.2-5.67,8.42
		s-2.08,6.65-2.08,10.28c0,3.68,0.69,7.13,2.08,10.35c1.38,3.22,3.27,6.03,5.67,8.42c2.39,2.39,5.2,4.28,8.42,5.67
		s6.65,2.08,10.28,2.08c3.22,0,6.27-0.54,9.14-1.63c2.87-1.08,5.45-2.57,7.74-4.46c2.29-1.89,4.22-4.13,5.78-6.73
		c1.56-2.59,2.65-5.4,3.25-8.42h-12.84c-1.06,2.62-2.76,4.75-5.1,6.38c-2.34,1.64-5,2.45-7.97,2.45c-1.96,0-3.8-0.37-5.52-1.1
		c-1.71-0.73-3.21-1.74-4.49-3.02s-2.29-2.78-3.02-4.5c-0.73-1.71-1.09-3.55-1.09-5.51s0.36-3.79,1.09-5.48
		C189.59,79.99,190.6,78.5,191.88,77.21z"/>
	<path class="st0" d="M256.59,101.43c-1.71,0-3.31-0.33-4.8-0.98s-2.8-1.55-3.93-2.68c-1.13-1.13-2.03-2.44-2.68-3.93
		c-0.66-1.49-0.98-3.08-0.98-4.8v-40.5h-5.36l0.08-0.07h-8.77l-5.29,8.84h7.03v31.73c0,3.43,0.64,6.64,1.93,9.63
		c1.29,3,3.05,5.62,5.29,7.86c2.24,2.24,4.86,4.01,7.86,5.29s6.21,1.93,9.63,1.93v-0.08h7.03v-12.32h-7.03v0.08H256.59z"/>
	<path class="st0" d="M113,33.48c-1.56,2.66-0.66,6.09,2,7.65l29.54,17.28L123.7,71.19c-2.49,1.52-3.26,4.77-1.74,7.26
		c1,1.63,2.73,2.52,4.5,2.52c0.94,0,1.89-0.25,2.75-0.78l20.31-12.45v32c0,3.09,2.5,5.59,5.59,5.59s5.59-2.5,5.59-5.59V54.91
		l-40.06-23.44C117.99,29.92,114.56,30.81,113,33.48z"/>
	<path class="st0" d="M67.18,100.47V67.6l21.4,12.76c0.85,0.51,1.78,0.75,2.7,0.75c1.8,0,3.55-0.92,4.54-2.58
		c1.49-2.5,0.67-5.74-1.83-7.24l-21.63-12.9l30.12-17.24c2.68-1.53,3.61-4.95,2.07-7.63c-1.53-2.68-4.95-3.61-7.63-2.07L56,54.88
		v45.59c0,3.09,2.5,5.59,5.59,5.59S67.18,103.55,67.18,100.47z"/>
	<path class="st0" d="M143.93,110.92l-29.75,18.09v-22.09c0-2.92-2.36-5.28-5.28-5.28s-5.28,2.36-5.28,5.28v22.16l-30.05-18.01
		c-2.65-1.59-6.08-0.73-7.67,1.92s-0.73,6.08,1.92,7.67l41.09,24.62l40.82-24.82c2.64-1.6,3.47-5.04,1.87-7.68
		C150,110.15,146.56,109.31,143.93,110.92z"/>
	<path class="st0" d="M305.24,68.56c-2.42-2.42-5.24-4.35-8.46-5.78c-3.22-1.44-6.6-2.15-10.13-2.15c-3.98,0-7.59,0.72-10.84,2.15
		s-6.03,3.36-8.35,5.78s-4.11,5.24-5.37,8.46s-1.89,6.6-1.89,10.12s0.63,6.89,1.89,10.09s3.05,6.01,5.37,8.43
		c2.31,2.42,5.1,4.34,8.35,5.78c3.25,1.44,6.86,2.15,10.84,2.15c3.53,0,6.9-0.72,10.13-2.15c3.22-1.44,6.04-3.36,8.46-5.78
		c2.42-2.42,4.34-5.23,5.78-8.43c1.43-3.2,2.15-6.56,2.15-10.09s-0.72-6.9-2.15-10.12C309.59,73.8,307.66,70.98,305.24,68.56z
		 M299.65,92.36c-0.81,1.71-1.88,3.22-3.21,4.53s-2.84,2.37-4.53,3.17c-1.69,0.8-3.44,1.21-5.25,1.21c-2.22,0-4.19-0.4-5.93-1.21
		s-3.21-1.86-4.42-3.17c-1.21-1.31-2.14-2.82-2.8-4.53c-0.66-1.71-0.98-3.45-0.98-5.21c0-1.81,0.33-3.56,0.98-5.25
		c0.65-1.69,1.59-3.2,2.8-4.53s2.68-2.41,4.42-3.21c1.74-0.81,3.71-1.21,5.93-1.21c1.82,0,3.56,0.4,5.25,1.21s3.2,1.88,4.53,3.21
		s2.4,2.85,3.21,4.53c0.81,1.69,1.21,3.44,1.21,5.25C300.86,88.91,300.46,90.65,299.65,92.36z"/>
	<path class="st0" d="M409.51,64.94c-2.07-1.31-4.27-2.31-6.61-3.02c-2.34-0.7-4.82-1.06-7.44-1.06c-3.63,0-7.04,0.69-10.24,2.08
		c-3.2,1.39-5.98,3.26-8.35,5.63c-2.37,2.37-4.24,5.16-5.63,8.38s-2.08,6.65-2.08,10.28s0.69,7.04,2.08,10.24
		c1.38,3.2,3.26,5.98,5.63,8.35c2.37,2.37,5.15,4.25,8.35,5.63c3.2,1.39,6.61,2.08,10.24,2.08s7.05-0.69,10.28-2.08
		c3.22-1.38,6.02-3.26,8.39-5.63c2.37-2.37,4.24-5.15,5.63-8.35s2.08-6.61,2.08-10.24V52.09h-12.32v12.85H409.51z M408.41,92.66
		c-0.73,1.71-1.74,3.2-3.02,4.46c-1.29,1.26-2.77,2.25-4.46,2.99c-1.69,0.73-3.51,1.09-5.48,1.09c-1.91,0-3.73-0.36-5.44-1.09
		c-1.71-0.73-3.2-1.73-4.46-2.99c-1.26-1.26-2.26-2.74-2.98-4.46c-0.73-1.71-1.1-3.52-1.1-5.44c0-1.97,0.36-3.79,1.1-5.48
		c0.73-1.69,1.72-3.17,2.98-4.46s2.74-2.29,4.46-3.02c1.71-0.73,3.53-1.1,5.44-1.1c1.96,0,3.79,0.36,5.48,1.1
		c1.69,0.73,3.17,1.74,4.46,3.02c1.28,1.28,2.29,2.77,3.02,4.46c0.73,1.69,1.1,3.51,1.1,5.48
		C409.51,89.14,409.14,90.95,408.41,92.66z"/>
	<path class="st0" d="M350.28,90.55c0,1.31-0.3,2.6-0.91,3.85c-0.61,1.26-1.4,2.38-2.38,3.36s-2.12,1.78-3.4,2.38
		c-1.29,0.61-2.58,0.91-3.89,0.91c-1.31,0-2.59-0.3-3.85-0.91c-1.26-0.6-2.38-1.4-3.36-2.38c-0.98-0.98-1.77-2.1-2.38-3.36
		c-0.6-1.26-0.91-2.54-0.91-3.85V60.63h-12.32v29.92c0,3.07,0.62,5.98,1.85,8.73c1.23,2.75,2.9,5.16,4.98,7.25
		c2.09,2.09,4.51,3.75,7.26,4.99c2.74,1.23,5.65,1.85,8.73,1.85c1.76,0,3.52-0.07,5.29-0.23c1.76-0.15,3.53-0.65,5.29-1.51v1.74
		h12.31V60.63h-12.31L350.28,90.55L350.28,90.55z"/>
	<path class="st0" d="M553.92,76.87c-1.39-3.22-3.26-6.03-5.63-8.42s-5.16-4.28-8.38-5.67c-3.22-1.38-6.65-2.08-10.28-2.08
		s-7.05,0.7-10.28,2.08c-3.22,1.39-6.03,3.27-8.42,5.67c-2.39,2.39-4.28,5.2-5.67,8.42s-2.08,6.65-2.08,10.28s0.69,7.05,2.08,10.28
		c1.39,3.22,3.27,6.02,5.67,8.39c2.39,2.37,5.2,4.24,8.42,5.63c3.22,1.39,6.65,2.08,10.28,2.08c2.57,0,5.04-0.35,7.4-1.06
		c2.37-0.7,4.59-1.71,6.65-3.02v4.08H556V87.15C556,83.52,555.31,80.1,553.92,76.87z M542.59,92.63c-0.73,1.69-1.74,3.17-3.02,4.46
		c-1.29,1.28-2.78,2.29-4.49,3.02c-1.71,0.73-3.53,1.09-5.44,1.09c-1.96,0-3.79-0.36-5.48-1.09c-1.69-0.73-3.17-1.74-4.46-3.02
		c-1.28-1.28-2.29-2.78-3.02-4.5c-0.73-1.71-1.1-3.52-1.1-5.44c0-1.96,0.37-3.8,1.1-5.51s1.74-3.21,3.02-4.5
		c1.29-1.28,2.77-2.29,4.46-3.02c1.69-0.73,3.51-1.1,5.48-1.1s3.79,0.37,5.48,1.1c1.69,0.73,3.17,1.73,4.46,3.02
		c1.28,1.29,2.29,2.78,3.02,4.5c0.73,1.71,1.1,3.55,1.1,5.51C543.68,89.11,543.32,90.94,542.59,92.63z"/>
	<circle class="st0" cx="434.11" cy="104.66" r="9.08"/>
	<path class="st0" d="M99.82,86.39c0,5.01,4.06,9.07,9.08,9.07c5.01,0,9.08-4.06,9.08-9.07s-4.06-9.08-9.08-9.08
		C103.88,77.32,99.82,81.38,99.82,86.39z"/>
	<path class="st0" d="M463.11,77.21c1.28-1.29,2.78-2.29,4.49-3.02c1.71-0.73,3.55-1.1,5.51-1.1c2.97,0,5.63,0.82,7.97,2.46
		s4.04,3.74,5.1,6.31h12.84c-0.6-3.02-1.69-5.82-3.25-8.39s-3.49-4.8-5.78-6.68c-2.29-1.89-4.87-3.37-7.74-4.46
		c-2.87-1.08-5.92-1.63-9.14-1.63c-3.63,0-7.05,0.7-10.27,2.08c-3.23,1.39-6.03,3.27-8.42,5.67c-2.39,2.39-4.28,5.2-5.67,8.42
		s-2.08,6.65-2.08,10.28c0,3.68,0.69,7.13,2.08,10.35c1.39,3.22,3.27,6.03,5.67,8.42c2.39,2.39,5.2,4.28,8.42,5.67
		s6.65,2.08,10.27,2.08c3.22,0,6.27-0.54,9.14-1.63c2.87-1.08,5.45-2.57,7.74-4.46c2.29-1.89,4.22-4.13,5.78-6.73
		c1.56-2.59,2.64-5.4,3.25-8.42h-12.84c-1.06,2.62-2.76,4.75-5.1,6.38c-2.34,1.64-5,2.45-7.97,2.45c-1.96,0-3.8-0.37-5.51-1.1
		c-1.71-0.73-3.21-1.74-4.49-3.02c-1.29-1.28-2.29-2.78-3.02-4.5c-0.73-1.71-1.09-3.55-1.09-5.51s0.36-3.79,1.09-5.48
		C460.82,79.99,461.82,78.5,463.11,77.21z"/>
</g>
</svg>
